<svg xmlns="http://www.w3.org/2000/svg" data-name="percentage badge" viewBox="0 0 182 187" width="182"  height="187" ><defs><filter id="a" x="1550" y="828" width="182" height="187" filterUnits="userSpaceOnUse"><feOffset result="offset" in="SourceAlpha"/><feGaussianBlur result="blur" stdDeviation="4"/><feFlood result="flood" flood-color="#3e8eac" flood-opacity=".2"/><feComposite result="composite" operator="in" in2="blur"/><feOffset result="offset-2" dx="-22.498" dy="26.812" in="SourceAlpha"/><feGaussianBlur result="blur-2" stdDeviation="4"/><feFlood result="flood-2" flood-color="#3e8eac" flood-opacity=".42"/><feComposite result="composite-2" operator="in" in2="blur-2"/><feBlend result="blend" mode="multiply" in2="composite"/><feBlend result="blend-2" in="SourceGraphic"/></filter></defs><path d="M1644.41 846.8a14.342 14.342 0 0014.18 0l3.99-2.555a7.55 7.55 0 0110.96 2.936l2.17 4.2a14.354 14.354 0 0012.28 7.092l4.73-.22a7.556 7.556 0 018.03 8.023l-.22 4.729a14.324 14.324 0 007.09 12.282l4.2 2.174a7.547 7.547 0 012.94 10.959l-2.56 3.986a14.346 14.346 0 000 14.182l2.56 3.985a7.548 7.548 0 01-2.94 10.96l-4.2 2.174a14.323 14.323 0 00-7.09 12.282l.22 4.729a7.557 7.557 0 01-8.03 8.023l-4.73-.22a14.356 14.356 0 00-12.28 7.091l-2.17 4.205a7.55 7.55 0 01-10.96 2.937l-3.99-2.555a14.342 14.342 0 00-14.18 0l-3.98 2.555a7.549 7.549 0 01-10.96-2.937l-2.18-4.205a14.343 14.343 0 00-12.28-7.091l-4.73.22a7.544 7.544 0 01-8.02-8.023l.22-4.729a14.366 14.366 0 00-7.09-12.282l-4.21-2.174a7.555 7.555 0 01-2.94-10.96l2.56-3.985a14.346 14.346 0 000-14.182l-2.56-3.986a7.554 7.554 0 012.94-10.959l4.21-2.174a14.367 14.367 0 007.09-12.282l-.22-4.729a7.543 7.543 0 018.02-8.023l4.73.22a14.342 14.342 0 0012.28-7.092l2.18-4.2a7.548 7.548 0 0110.96-2.936z" transform="translate(-1550 -828)" fill-rule="evenodd" fill="#007ac4" filter="url(#a)"/><path d="M85.23 83.26c-7.14 0-12.82-5.057-12.82-14.286s5.68-14.285 12.82-14.285 12.75 4.99 12.75 14.218S92.3 83.26 85.23 83.26zm0-22.555c-3.4 0-5.06 3.075-5.06 8.269 0 5.059 1.73 8.134 5.06 8.134 3.39 0 4.99-3.075 4.99-8.2s-1.67-8.203-4.99-8.203zm-1.46 42.1l16.77-23.924 16.35-24.127 6.72 1.435-16.83 24.061-16.36 23.99zm38.32 1.5c-7.14 0-12.75-4.99-12.75-14.217s5.68-14.354 12.75-14.354c7.21 0 12.82 5.058 12.82 14.285s-5.68 14.294-12.82 14.294zm0-22.42c-3.4 0-4.99 3.076-4.99 8.2s1.73 8.272 4.99 8.272c3.46 0 5.13-3.147 5.13-8.341 0-5.047-1.74-8.123-5.13-8.123z" fill="#f4fcff" fill-rule="evenodd"/></svg>