<svg xmlns="http://www.w3.org/2000/svg" width="104" height="104" viewBox="0 0 104 104"><path d="M51.996-.005c28.718 0 51.999 23.282 51.999 52 0 28.719-23.281 52.001-51.999 52.001h-.009c-28.719 0-52.001-23.282-52.001-52.001 0-28.718 23.282-52 52.001-52h.009z" fill="#FFF"/><path d="M52.003 102.999h-.006c-28.165 0-50.996-22.831-50.996-50.996v-.006c0-28.165 22.831-50.996 50.996-50.996h.006c28.165 0 50.996 22.831 50.996 50.996v.006c0 28.165-22.831 50.996-50.996 50.996zm-.008-99.921h-.007c-27.017 0-48.919 21.902-48.919 48.917 0 27.017 21.902 48.919 48.919 48.919h.007c27.017 0 48.919-21.902 48.919-48.919 0-27.015-21.902-48.917-48.919-48.917z" fill="#1E1E1E"/><path d="M51.995 4.491C78.232 4.491 99.5 25.76 99.5 51.995 99.5 78.232 78.232 99.5 51.995 99.5h-.007c-26.237 0-47.505-21.268-47.505-47.505 0-26.235 21.268-47.504 47.505-47.504h.007z" fill="#1E1E1E"/></svg>