<svg xmlns="http://www.w3.org/2000/svg" viewBox="0 0 64 64" width="64"  height="64" ><g fill="none" fill-rule="evenodd"><circle cx="32" cy="32" r="32" fill="#FFF" fill-rule="nonzero"/><path stroke="coral" fill="#b2192d" stroke-linejoin="round" stroke-width="3" d="M25.61 50.36c-1.3-3.34-1.2-5 .78-7.92a18.06 18.06 0 002.73-6.32s4.52 3.22 3.84 6.69c3-3.35.78-9.7.32-11.75 6.82 4.76 9.74 11.65 5.81 19.3 20.91-11.82 5.19-29.51 2.46-31.5.91 2-1.13 4.17-3 5.81-3.11-11.81-8.6-13-8.6-13a25.63 25.63 0 01-5 18.76c-.14-2.43-2.69-5.13-4-7.46-.28 4.41-3.66 8-4.57 12.43-1.24 6 .93 10.37 9.14 15l.09-.04z"/></g></svg>