<svg xmlns="http://www.w3.org/2000/svg" width="100" height="100" viewBox="0 0 100 100"><path d="M44.508 2.975c3.021 1.937 7.965 1.937 10.987 0l3.087-1.98c3.022-1.937 6.843-.913 8.491 2.275l1.684 3.258c1.648 3.189 5.93 5.661 9.515 5.494l3.664-.171c3.585-.166 6.382 2.631 6.215 6.216l-.17 3.663c-.167 3.586 2.305 7.868 5.493 9.516l3.258 1.684c3.189 1.648 4.212 5.469 2.275 8.49l-1.979 3.088c-1.937 3.021-1.937 7.965 0 10.987l1.979 3.087c1.937 3.022.914 6.843-2.275 8.491l-3.258 1.684c-3.188 1.648-5.66 5.93-5.493 9.515l.17 3.664c.167 3.585-2.63 6.382-6.215 6.215l-3.664-.17c-3.585-.167-7.867 2.305-9.515 5.493l-1.684 3.258c-1.648 3.189-5.469 4.212-8.491 2.275l-3.087-1.979c-3.022-1.937-7.966-1.937-10.987 0l-3.088 1.979c-3.021 1.937-6.842.914-8.49-2.275l-1.684-3.258c-1.649-3.188-5.93-5.66-9.516-5.493l-3.663.17c-3.585.167-6.382-2.63-6.215-6.215l.17-3.664c.167-3.585-2.305-7.867-5.494-9.515L3.27 67.073C.082 65.425-.942 61.604.995 58.582l1.98-3.087c1.937-3.022 1.937-7.966 0-10.987L.995 41.42c-1.937-3.021-.913-6.842 2.275-8.49l3.258-1.684c3.189-1.648 5.661-5.93 5.494-9.516l-.17-3.663c-.167-3.585 2.63-6.382 6.215-6.216l3.663.171c3.586.167 7.867-2.305 9.516-5.494L32.93 3.27C34.578.082 38.399-.942 41.42.995l3.088 1.98z" fill="#007ac4"/></svg>