<svg xmlns="http://www.w3.org/2000/svg" width="48" height="48" viewBox="0 0 48 48"><path fill="#1e1e1e" fill-rule="evenodd" d="M11.591 34.908a.5.5 0 0 1 0 1H4.8a.5.5 0 0 1-.5-.5V21.41a.5.5 0 0 1 1 0v13.498h6.292zm32.041-5.83a.497.497 0 0 1 .068.253v6.077a.5.5 0 0 1-1 0v-4.88H30.22v4.88a.5.5 0 0 1-.5.5h-6.435a.5.5 0 0 1 0-1h5.934V18.87a.5.5 0 0 1 .5-.5h7.353a.5.5 0 0 1 .432.247l6.128 10.46zm-13.413.45H42.7v-.062L36.785 19.37H30.22v10.158zm6.24 2.773c2.261 0 4.1 1.839 4.1 4.1 0 2.261-1.838 4.1-4.1 4.1a4.104 4.104 0 0 1-4.1-4.1c0-2.261 1.84-4.1 4.1-4.1zm0 7.2c1.71 0 3.1-1.391 3.1-3.1 0-1.71-1.39-3.1-3.1-3.1-1.709 0-3.1 1.39-3.1 3.1 0 1.709 1.392 3.1 3.1 3.1zm-18.98-7.287c2.26 0 4.1 1.839 4.1 4.1 0 2.26-1.84 4.1-4.1 4.1a4.104 4.104 0 0 1-4.1-4.1c0-2.261 1.838-4.1 4.1-4.1zm0 7.2c1.709 0 3.1-1.391 3.1-3.1 0-1.71-1.392-3.1-3.1-3.1a3.104 3.104 0 0 0-3.1 3.1c0 1.709 1.39 3.1 3.1 3.1zm-6.827-9.715c-.994 0-1.804-.81-1.804-1.805V15.041c0-1.817 1.038-3.43 2.66-4.218V4.658c0-.639.53-1.159 1.18-1.159h1.722c.651 0 1.181.52 1.181 1.159v6.165a4.666 4.666 0 0 1 2.614 3.623 4.115 4.115 0 0 1 1.324-1.042v-5.24c0-.587.486-1.065 1.084-1.065h1.853c.598 0 1.084.478 1.084 1.065v5.24a4.076 4.076 0 0 1 2.28 3.659V28.08a1.62 1.62 0 0 1-1.619 1.619h-5.343c-.462 0-.877-.197-1.172-.509a1.795 1.795 0 0 1-1.25.509h-5.794zm-.804-14.658v12.853c0 .444.361.805.804.805h5.794a.806.806 0 0 0 .804-.805V15.041a3.74 3.74 0 0 0-2.344-3.442l-.004-.003a.464.464 0 0 1-.127-.083c-.01-.009-.026-.014-.036-.024-.024-.024-.037-.054-.056-.082-.017-.026-.04-.048-.052-.076-.006-.015-.005-.032-.01-.047a.512.512 0 0 1-.029-.145V4.658c0-.086-.084-.159-.182-.159h-1.722c-.098 0-.18.073-.18.159v6.476l-.002.005c0 .05-.014.099-.029.146-.005.015-.004.031-.01.046-.013.029-.036.053-.054.08-.018.026-.03.055-.053.078-.01.01-.026.015-.038.025a.497.497 0 0 1-.126.082l-.004.003a3.74 3.74 0 0 0-2.344 3.442zm10.366-.862a3.135 3.135 0 0 0-1.964 2.884V28.08a.62.62 0 0 0 .618.619h5.343a.62.62 0 0 0 .618-.619V17.063c0-1.256-.79-2.415-1.964-2.884l-.004-.002a.521.521 0 0 1-.128-.083c-.01-.01-.026-.015-.036-.025-.023-.023-.037-.054-.056-.082-.017-.025-.039-.048-.05-.076-.007-.014-.006-.031-.01-.046a.48.48 0 0 1-.03-.145V8.164c0-.031-.037-.065-.085-.065h-1.853c-.048 0-.084.034-.084.065v5.555a.493.493 0 0 1-.03.147c-.005.014-.005.031-.01.045-.013.03-.037.053-.055.08-.018.027-.03.056-.053.078-.01.011-.026.016-.037.026a.525.525 0 0 1-.126.082l-.004.002z"></path></svg>