<svg xmlns="http://www.w3.org/2000/svg" viewBox="0 0 20 20" width="20"  height="20" ><path fill="#1e1e1e" d="M8.3,17.42a1.75,1.75,0,0,1-.32,0,1.27,1.27,0,0,1-.77-.63L7,16.29a1.08,1.08,0,0,0-1-.54l-.51,0a1.25,1.25,0,0,1-.94-.36,1.21,1.21,0,0,1-.35-.93l0-.5a1.16,1.16,0,0,0-.55-1l-.46-.23A1.22,1.22,0,0,1,2.75,11L3,10.61A1.17,1.17,0,0,0,3,9.52l-.28-.43a1.22,1.22,0,0,1,.47-1.76l.46-.23a1.16,1.16,0,0,0,.55-.95l0-.51a1.23,1.23,0,0,1,.35-.93,1.21,1.21,0,0,1,.94-.35l.51,0a1.17,1.17,0,0,0,1-.55l.24-.45A1.22,1.22,0,0,1,9,2.91l.44.28a1.19,1.19,0,0,0,1.1,0L11,2.91a1.22,1.22,0,0,1,1.76.47l.24.45a1.1,1.1,0,0,0,1,.55l.51,0a1.22,1.22,0,0,1,.94.35,1.23,1.23,0,0,1,.35.93l0,.51a1.14,1.14,0,0,0,.55.95l.46.23a1.22,1.22,0,0,1,.47,1.76l-.28.43a1.17,1.17,0,0,0,0,1.09l.28.43a1.22,1.22,0,0,1-.47,1.76l-.46.23a1.14,1.14,0,0,0-.55,1l0,.5a1.21,1.21,0,0,1-.35.93,1.23,1.23,0,0,1-.94.36l-.51,0a1.09,1.09,0,0,0-1,.54l-.24.46a1.24,1.24,0,0,1-.77.63,1.28,1.28,0,0,1-1-.16l-.44-.28a1.19,1.19,0,0,0-1.1,0L9,17.22A1.25,1.25,0,0,1,8.3,17.42ZM6,14.94a2,2,0,0,1,1.65,1l.23.45a.42.42,0,0,0,.27.22.4.4,0,0,0,.35-.05L9,16.26a2,2,0,0,1,2,0l.43.28a.43.43,0,0,0,.35.05.42.42,0,0,0,.27-.22l.23-.45a2,2,0,0,1,1.71-1l.52,0a.41.41,0,0,0,.45-.44l0-.51a2,2,0,0,1,1-1.7l.46-.23a.45.45,0,0,0,.22-.27.39.39,0,0,0-.06-.33l-.28-.43a2,2,0,0,1,0-2l.28-.43a.39.39,0,0,0,.06-.33.42.42,0,0,0-.22-.27l-.46-.23a2,2,0,0,1-1-1.7l0-.51a.44.44,0,0,0-.12-.32.44.44,0,0,0-.33-.13l-.52,0a2,2,0,0,1-1.71-1L12,3.75a.45.45,0,0,0-.27-.22.44.44,0,0,0-.35.06L11,3.87a2,2,0,0,1-2,0H9l-.43-.28a.44.44,0,0,0-.35-.06.45.45,0,0,0-.27.22l-.23.46A2,2,0,0,1,6,5.19l-.52,0a.46.46,0,0,0-.33.13A.44.44,0,0,0,5,5.61l0,.51a2,2,0,0,1-1,1.7l-.46.23a.42.42,0,0,0-.22.27.39.39,0,0,0,.06.33l.28.43a2,2,0,0,1,0,2l-.28.43a.39.39,0,0,0-.06.33.42.42,0,0,0,.22.27l.46.23A2,2,0,0,1,5,14l0,.51a.44.44,0,0,0,.12.32.41.41,0,0,0,.33.12l.52,0Z"></path><path fill="#1d1d1d" d="M9.65,8.43A1.47,1.47,0,0,1,9.24,9.5a1.17,1.17,0,0,1-.44.29,1.35,1.35,0,0,1-.52.11,1.42,1.42,0,0,1-.55-.11A1.13,1.13,0,0,1,7.3,9.5,1.44,1.44,0,0,1,7,9a1.9,1.9,0,0,1-.1-.61A2,2,0,0,1,7,7.81,1.33,1.33,0,0,1,7.73,7a1.43,1.43,0,0,1,1.1,0,1.28,1.28,0,0,1,.43.3,1.17,1.17,0,0,1,.29.47A1.72,1.72,0,0,1,9.65,8.43Zm2-1.28A1.31,1.31,0,0,1,11.75,7,.41.41,0,0,1,12,7h.74L8.29,12.78a.69.69,0,0,1-.13.11.34.34,0,0,1-.18,0H7.22ZM8.87,8.43a1.54,1.54,0,0,0,0-.4.9.9,0,0,0-.13-.26.52.52,0,0,0-.19-.14.68.68,0,0,0-.46,0,.49.49,0,0,0-.18.14A.71.71,0,0,0,7.74,8a1.54,1.54,0,0,0,0,.4,1.38,1.38,0,0,0,0,.38.54.54,0,0,0,.13.25.4.4,0,0,0,.18.14.68.68,0,0,0,.46,0,.43.43,0,0,0,.19-.14.65.65,0,0,0,.13-.25A1.38,1.38,0,0,0,8.87,8.43ZM13,11.54a1.64,1.64,0,0,1-.11.6,1.38,1.38,0,0,1-.31.46,1.23,1.23,0,0,1-.44.3,1.31,1.31,0,0,1-.52.11,1.37,1.37,0,0,1-.54-.11,1.23,1.23,0,0,1-.44-.3,1.32,1.32,0,0,1-.28-.46,1.64,1.64,0,0,1-.1-.6,1.81,1.81,0,0,1,.1-.63,1.47,1.47,0,0,1,.28-.47,1.23,1.23,0,0,1,.44-.3,1.37,1.37,0,0,1,.54-.1,1.42,1.42,0,0,1,.55.1,1.32,1.32,0,0,1,.44.3,1.47,1.47,0,0,1,.28.47A1.81,1.81,0,0,1,13,11.54Zm-.79,0a1.49,1.49,0,0,0,0-.4.58.58,0,0,0-.13-.26.38.38,0,0,0-.19-.14.56.56,0,0,0-.23-.05.59.59,0,0,0-.23.05.4.4,0,0,0-.18.14.7.7,0,0,0-.12.26,1.45,1.45,0,0,0,0,.4,1.35,1.35,0,0,0,0,.38.73.73,0,0,0,.12.25.49.49,0,0,0,.18.14.85.85,0,0,0,.23,0,.79.79,0,0,0,.23,0,.45.45,0,0,0,.19-.14.59.59,0,0,0,.13-.25A1.38,1.38,0,0,0,12.22,11.54Z"></path></svg>