<svg class="paymentOptions__paymentIcon--74W1J" xmlns="http://www.w3.org/2000/svg" xmlns:xlink="http://www.w3.org/1999/xlink" width="48" height="36" viewBox="0 0 48 36" aria-label="IDeal Icon"><defs><path id="iDealIconIdA" d="M0 .005h26.933v23.896H0z"></path><path id="iDealIconIdC" d="M0 23.995h26.933V.099H0z"></path></defs><g fill="none" fill-rule="evenodd"><rect width="48" height="36" rx="4" fill="none"></rect><g transform="translate(11 6)" fill="none"><g transform="translate(0 .094)" fill="none"><mask id="iDealIconIdB" fill="#fff"><path id="iDealIconIdA" d="M0 .005h26.933v23.896H0z"></path></mask><path fill="#ffffff" d="M0 .005v23.896h13.843c9.13 0 13.09-5.147 13.09-11.972 0-6.797-3.96-11.924-13.09-11.924H0z" mask="url(#iDealIconIdB)"></path></g><path fill="#000" d="M13.846 1.852c9.874 0 11.348 6.373 11.348 10.17 0 6.59-4.03 10.218-11.348 10.218H1.744V1.852h12.102zm-11.15.959v18.47h11.15c6.733 0 10.396-3.157 10.396-9.259 0-6.27-3.97-9.211-10.396-9.211H2.696z"></path><mask id="iDealIconIdD" fill="#fff"><path id="iDealIconIdC" d="M0 23.995h26.933V.099H0z"></path></mask><path fill="#000" d="M4.192 19.775h3.57V13.38h-3.57zM8.195 10.16a2.225 2.225 0 0 1-2.218 2.232c-1.225 0-2.219-1-2.219-2.233 0-1.232.994-2.232 2.219-2.232 1.225 0 2.218 1 2.218 2.232" mask="url(#iDealIconIdD)"></path><path fill="#cc0066" d="M15.198 11.204v1.035h-2.543V8.085h2.461v1.034h-1.433v.482h1.355v1.034h-1.355v.569h1.515zm.494 1.036l1.245-4.157H18.4l1.244 4.157h-1.07l-.233-.804h-1.345l-.234.804h-1.07zm1.604-1.838h.744l-.34-1.175h-.062l-.342 1.175zm2.865-2.319h1.028v3.121h1.524c-.418-5.662-4.844-6.886-8.866-6.886H9.559v3.768h.635c1.157 0 1.876.79 1.876 2.06 0 1.31-.702 2.093-1.876 2.093h-.635v7.538h4.288c6.539 0 8.815-3.056 8.895-7.538h-2.581V8.083zM9.558 9.12v2.084h.636c.44 0 .847-.128.847-1.058 0-.91-.453-1.026-.847-1.026h-.636z" mask="url(#iDealIconIdD)"></path></g></g></svg>