<svg xmlns="http://www.w3.org/2000/svg" viewBox="0 0 46 45" width="46"  height="45" ><g fill="#ffffff"><path d="M16.638,20.599 C16.638,17.922 18.713,12.411 18.802,12.178 C18.802,12.178 18.975,11.719 18.975,11.719 L26.823,11.719 C26.823,11.719 27.010,12.142 27.010,12.142 C27.098,12.340 29.164,17.047 29.164,20.510 C29.164,23.765 24.799,27.274 23.634,28.152 C23.634,28.152 23.634,34.087 23.634,34.087 L26.049,34.087 L26.049,35.501 L19.803,35.501 L19.803,34.087 L22.209,34.087 C22.209,34.087 22.209,28.099 22.209,28.099 C20.983,27.055 16.638,23.176 16.638,20.599 zM22.966,26.880 C24.620,25.604 27.739,22.739 27.739,20.510 C27.739,17.905 26.379,14.345 25.883,13.134 C25.883,13.134 19.968,13.134 19.968,13.134 C19.474,14.504 18.064,18.592 18.064,20.599 C18.064,22.126 20.911,25.108 22.966,26.880 zM44.120,23.726 C42.707,25.434 40.708,26.493 38.492,26.708 C38.320,26.725 38.149,26.727 37.977,26.733 C37.830,27.340 37.648,27.938 37.444,28.529 C39.279,27.171 41.468,26.304 43.829,26.070 C43.829,26.070 44.758,25.979 44.758,25.979 C44.758,25.979 44.602,26.893 44.602,26.893 C44.422,27.947 44.033,28.937 43.447,29.835 C41.949,32.157 39.424,33.486 36.760,33.486 C36.179,33.486 35.592,33.404 35.006,33.274 C34.815,33.547 34.642,33.830 34.435,34.095 C33.594,35.175 32.645,36.143 31.619,37.011 C33.318,36.661 35.103,36.801 36.771,37.468 C36.771,37.468 37.644,37.816 37.644,37.816 C37.644,37.816 37.070,38.556 37.070,38.556 C36.143,39.748 34.805,40.513 33.300,40.706 C33.052,40.738 32.805,40.753 32.559,40.753 C31.312,40.753 30.107,40.348 29.103,39.580 C28.960,39.470 28.822,39.354 28.690,39.232 C28.690,39.232 28.576,39.127 28.576,39.127 C27.326,39.827 25.996,40.400 24.596,40.821 C25.667,41.621 26.746,42.850 27.137,44.697 C27.137,44.697 25.742,44.987 25.742,44.987 C25.353,43.151 24.058,42.084 23.017,41.493 C21.973,42.083 20.690,43.147 20.296,44.989 C20.296,44.989 18.902,44.695 18.902,44.695 C19.297,42.848 20.379,41.618 21.454,40.818 C20.048,40.394 18.710,39.830 17.459,39.129 C17.459,39.129 17.347,39.232 17.347,39.232 C17.224,39.347 17.095,39.455 16.963,39.557 C15.954,40.334 14.739,40.746 13.482,40.746 C13.242,40.746 13.000,40.731 12.758,40.701 C11.249,40.512 9.904,39.751 8.970,38.558 C8.970,38.558 8.391,37.817 8.391,37.817 C8.391,37.817 9.267,37.467 9.267,37.467 C10.935,36.803 12.722,36.664 14.428,37.019 C13.393,36.145 12.437,35.169 11.591,34.081 C11.389,33.821 11.219,33.545 11.032,33.277 C10.899,33.307 10.767,33.344 10.633,33.367 C10.181,33.443 9.731,33.480 9.288,33.480 C5.473,33.480 2.091,30.748 1.428,26.894 C1.428,26.894 1.271,25.979 1.271,25.979 C1.271,25.979 2.201,26.070 2.201,26.070 C4.564,26.304 6.756,27.173 8.595,28.539 C8.390,27.945 8.207,27.344 8.060,26.733 C7.890,26.728 7.721,26.725 7.552,26.710 C2.966,26.275 -0.408,22.220 0.029,17.670 C0.029,17.670 0.118,16.743 0.118,16.743 C0.118,16.743 0.993,17.077 0.993,17.077 C3.744,18.124 6.003,20.005 7.525,22.412 C7.517,21.582 7.542,20.747 7.641,19.909 C7.413,19.831 7.186,19.749 6.966,19.651 C2.768,17.795 0.873,12.895 2.742,8.727 C2.742,8.727 3.124,7.874 3.124,7.874 C3.124,7.874 3.848,8.471 3.848,8.471 C6.277,10.475 7.872,13.205 8.447,16.212 C8.737,15.310 9.094,14.436 9.508,13.592 C6.862,11.313 5.910,7.688 7.174,4.405 C7.574,3.364 8.174,2.429 8.957,1.627 C8.957,1.627 9.606,0.962 9.606,0.962 C9.606,0.962 10.081,1.759 10.081,1.759 C11.573,4.260 12.167,7.107 11.869,9.915 C12.413,9.249 13.015,8.627 13.649,8.031 C13.631,7.962 13.607,7.896 13.591,7.827 C12.808,4.404 14.976,0.986 18.425,0.209 C18.425,0.209 19.338,0.003 19.338,0.003 C19.338,0.003 19.294,0.932 19.294,0.932 C19.148,4.044 17.600,6.870 15.048,8.685 C15.048,8.685 15.013,8.707 15.013,8.707 C11.740,11.601 9.637,15.510 9.073,19.868 C8.452,24.656 9.747,29.396 12.719,33.216 C15.077,36.248 18.280,38.424 21.983,39.508 C22.029,39.519 22.446,39.632 23.024,39.894 C23.609,39.630 24.032,39.515 24.086,39.501 C27.754,38.425 30.952,36.254 33.307,33.230 C36.284,29.410 37.583,24.669 36.966,19.878 C36.418,15.617 34.405,11.778 31.259,8.901 C31.259,8.901 30.952,8.702 30.952,8.702 C28.377,6.869 26.826,4.044 26.672,0.933 C26.672,0.933 26.626,0.004 26.626,0.004 C26.626,0.004 27.541,0.209 27.541,0.209 C29.212,0.583 30.636,1.581 31.551,3.019 C32.466,4.457 32.762,6.162 32.385,7.820 C32.372,7.875 32.353,7.927 32.339,7.981 C32.987,8.585 33.603,9.216 34.156,9.893 C34.085,9.229 34.054,8.512 34.101,7.737 C34.273,4.877 35.343,2.781 35.957,1.759 C35.957,1.759 36.433,0.962 36.433,0.962 C36.433,0.962 37.081,1.627 37.081,1.627 C37.863,2.427 38.463,3.362 38.865,4.406 C39.852,6.971 39.119,9.586 39.119,9.586 C38.530,11.684 37.263,12.992 36.540,13.612 C36.952,14.454 37.307,15.324 37.595,16.223 C38.166,13.215 39.762,10.477 42.198,8.470 C42.198,8.470 42.918,7.877 42.918,7.877 C42.918,7.877 43.303,8.724 43.303,8.724 C43.765,9.742 44.008,10.824 44.026,11.938 C44.091,15.551 41.832,18.736 38.397,19.909 C38.494,20.736 38.520,21.559 38.513,22.379 C40.039,19.984 42.282,18.119 45.011,17.077 C45.011,17.077 45.885,16.743 45.885,16.743 C45.885,16.743 45.977,17.668 45.977,17.668 C46.193,19.868 45.534,22.019 44.120,23.726 zM1.424,18.802 C1.587,22.058 4.074,24.812 7.390,25.267 C6.296,22.414 4.177,20.122 1.424,18.802 zM3.701,10.245 C2.819,13.367 4.282,16.744 7.257,18.223 C7.131,15.190 5.866,12.361 3.701,10.245 zM14.891,6.958 C14.975,6.892 15.047,6.815 15.132,6.750 C15.132,6.750 15.137,6.756 15.137,6.756 C16.510,5.468 17.441,3.787 17.757,1.919 C15.830,2.801 14.654,4.832 14.891,6.958 zM9.338,3.373 C8.995,3.845 8.717,4.360 8.505,4.910 C7.532,7.439 8.130,10.223 9.979,12.121 C10.905,9.241 10.679,6.120 9.338,3.373 zM3.077,27.624 C4.052,30.523 6.985,32.405 10.101,32.015 C8.399,29.717 5.905,28.158 3.077,27.624 zM10.855,38.445 C11.453,38.905 12.166,39.201 12.936,39.297 C13.836,39.411 14.729,39.241 15.510,38.816 C14.040,38.202 12.414,38.073 10.855,38.445 zM30.522,38.817 C31.309,39.248 32.209,39.418 33.117,39.303 C33.884,39.204 34.595,38.908 35.188,38.446 C33.629,38.070 32.001,38.200 30.522,38.817 zM30.346,3.774 C29.822,2.951 29.083,2.313 28.212,1.918 C28.534,3.798 29.477,5.493 30.879,6.795 C30.879,6.795 30.914,6.750 30.914,6.750 C30.975,6.796 31.026,6.851 31.086,6.898 C31.196,5.807 30.946,4.717 30.346,3.774 zM37.533,4.910 C37.321,4.359 37.043,3.845 36.701,3.373 C35.367,6.106 35.138,9.212 36.063,12.118 C37.909,10.219 38.506,7.437 37.533,4.910 zM35.928,32.018 C38.409,32.335 40.861,31.218 42.248,29.069 C42.547,28.613 42.781,28.130 42.952,27.624 C40.128,28.157 37.637,29.713 35.928,32.018 zM42.601,11.962 C42.592,11.375 42.507,10.799 42.348,10.241 C40.174,12.360 38.908,15.194 38.787,18.225 C41.151,17.055 42.650,14.650 42.601,11.962 zM38.623,25.269 C40.352,25.034 41.905,24.175 43.019,22.828 C43.977,21.672 44.517,20.270 44.584,18.801 C41.831,20.125 39.711,22.420 38.623,25.269 z" fill="#e4b06e"></path></g></svg>