<svg xmlns="http://www.w3.org/2000/svg" width="48" height="48" viewBox="0 0 48 48"><path fill="#1e1e1e" fill-rule="evenodd" d="M24 42.7c-2.987 0-5.848-.688-8.502-2.046a.485.485 0 0 0-.326-.045l-9.071 1.82 4.227-5.032a.503.503 0 0 0-.016-.663A18.633 18.633 0 0 1 5.3 24C5.3 13.688 13.688 5.3 24 5.3S42.7 13.688 42.7 24c0 10.311-8.388 18.7-18.7 18.7m0-38.4c10.862 0 19.7 8.837 19.7 19.7S34.862 43.7 24 43.7a19.48 19.48 0 0 1-8.801-2.077L4.898 43.69a.5.5 0 0 1-.481-.812l4.864-5.79A19.627 19.627 0 0 1 4.3 24C4.3 13.137 13.138 4.3 24 4.3zm4.526 9.58c-1.12-.904-2.615-1.4-4.212-1.4-2.909 0-5.854 1.774-5.854 5.167a.5.5 0 1 0 1 0c0-2.864 2.516-4.168 4.854-4.168 1.35 0 2.655.43 3.584 1.18 1.048.844 1.602 2.06 1.602 3.513 0 2.512-.68 4.325-2.02 5.388-2.11 1.671-5.222.966-5.25.96a.506.506 0 0 0-.458.122.496.496 0 0 0-.15.446l.524 3.155a.501.501 0 0 0 .575.411.5.5 0 0 0 .411-.575l-.41-2.466c1.168.14 3.533.188 5.371-1.265 1.597-1.26 2.407-3.34 2.407-6.176 0-1.767-.683-3.25-1.974-4.293zM23.44 34.26a1.001 1.001 0 0 1 0-2 1.001 1.001 0 0 1 0 2zm0-3c-1.103 0-2 .898-2 2 0 1.104.897 2 2 2s2-.896 2-2c0-1.102-.897-2-2-2z"></path></svg>